<svg width="1377" height="300" viewBox="0 0 1377 300" fill="none" xmlns="http://www.w3.org/2000/svg">
<path d="M0.00142032 55.2562V4.54598H238.922V55.2562H149.859V295.455H89.0639V55.2562H0.00142032ZM278.268 295.455V4.54598H339.774V244.745H464.49V295.455H278.268ZM505.222 295.455V4.54598H619.994C641.964 4.54598 660.714 8.4759 676.244 16.3358C691.869 24.1009 703.754 35.1331 711.898 49.4324C720.136 63.6369 724.256 80.3509 724.256 99.5744C724.256 118.893 720.089 135.512 711.756 149.432C703.422 163.258 691.348 173.864 675.534 181.251C659.814 188.637 640.78 192.33 618.432 192.33H541.585V142.898H608.489C620.231 142.898 629.985 141.288 637.75 138.069C645.515 134.849 651.292 130.019 655.08 123.58C658.962 117.141 660.903 109.139 660.903 99.5744C660.903 89.9153 658.962 81.7714 655.08 75.1426C651.292 68.5138 645.468 63.4948 637.608 60.0858C629.843 56.582 620.042 54.8301 608.205 54.8301H566.727V295.455H505.222ZM662.324 163.069L734.625 295.455H666.727L595.989 163.069H662.324ZM1024.4 106.393H962.182C961.045 98.3433 958.725 91.1937 955.222 84.9437C951.718 78.599 947.22 73.2013 941.727 68.7505C936.235 64.2998 929.89 60.8907 922.693 58.5233C915.591 56.1558 907.873 54.9721 899.54 54.9721C884.483 54.9721 871.367 58.7127 860.193 66.1937C849.019 73.5801 840.354 84.3755 834.199 98.5801C828.044 112.69 824.966 129.83 824.966 150.001C824.966 170.739 828.044 188.163 834.199 202.273C840.449 216.383 849.161 227.037 860.335 234.233C871.509 241.43 884.436 245.029 899.114 245.029C907.352 245.029 914.975 243.94 921.983 241.762C929.085 239.584 935.383 236.412 940.875 232.245C946.367 227.983 950.913 222.823 954.511 216.762C958.205 210.701 960.761 203.788 962.182 196.023L1024.4 196.307C1022.79 209.66 1018.76 222.538 1012.32 234.944C1005.98 247.254 997.409 258.287 986.614 268.04C975.913 277.699 963.129 285.37 948.261 291.052C933.489 296.639 916.775 299.432 898.119 299.432C872.172 299.432 848.972 293.561 828.517 281.819C808.157 270.076 792.059 253.078 780.222 230.824C768.479 208.571 762.608 181.629 762.608 150.001C762.608 118.277 768.574 91.2884 780.506 69.0346C792.438 46.7808 808.631 29.8301 829.085 18.1824C849.54 6.43992 872.551 0.568704 898.119 0.568704C914.975 0.568704 930.6 2.93613 944.994 7.67098C959.483 12.4058 972.314 19.3187 983.489 28.4096C994.663 37.4058 1003.75 48.438 1010.76 61.5062C1017.86 74.5744 1022.41 89.5365 1024.4 106.393ZM1143.22 150.001C1143.22 134.47 1147.01 120.313 1154.58 107.529C1162.16 94.7448 1172.34 84.5649 1185.12 76.9892C1197.91 69.4134 1212.06 65.6255 1227.59 65.6255C1241.04 65.6255 1253.45 68.5138 1264.81 74.2903C1276.27 80.0668 1285.74 87.974 1293.22 98.0119C1300.7 107.955 1305.34 119.224 1307.14 131.819H1272.76C1270.87 122.065 1265.61 114.11 1257 107.955C1248.38 101.705 1238.58 98.5801 1227.59 98.5801C1218.12 98.5801 1209.51 100.9 1201.74 105.54C1193.98 110.18 1187.77 116.383 1183.13 124.148C1178.49 131.913 1176.17 140.531 1176.17 150.001C1176.17 159.47 1178.49 168.088 1183.13 175.853C1187.77 183.618 1193.98 189.821 1201.74 194.461C1209.51 199.101 1218.12 201.421 1227.59 201.421C1238.58 201.421 1247.86 198.343 1255.43 192.188C1263.11 185.938 1267.93 177.936 1269.92 168.182H1304.3C1302.5 180.777 1298.1 192.093 1291.09 202.131C1284.08 212.074 1275.08 219.934 1264.1 225.711C1253.21 231.487 1241.04 234.376 1227.59 234.376C1212.06 234.376 1197.91 230.588 1185.12 223.012C1172.34 215.436 1162.16 205.256 1154.58 192.472C1147.01 179.688 1143.22 165.531 1143.22 150.001ZM1226.17 300.001C1205.53 300.001 1186.12 296.118 1167.93 288.353C1149.85 280.588 1133.89 269.84 1120.07 256.108C1106.33 242.283 1095.54 226.326 1087.68 208.239C1079.91 190.152 1076.08 170.739 1076.17 150.001C1076.27 129.262 1080.2 109.849 1087.96 91.7619C1095.82 73.6748 1106.62 57.7657 1120.35 44.0346C1134.08 30.2089 1149.99 19.4134 1168.08 11.6483C1186.16 3.8831 1205.53 0.000528336 1226.17 0.000528336C1246.91 0.000528336 1266.32 3.8831 1284.41 11.6483C1302.59 19.4134 1318.5 30.2089 1332.14 44.0346C1345.87 57.7657 1356.62 73.6748 1364.38 91.7619C1372.15 109.849 1376.08 129.262 1376.17 150.001C1376.27 170.739 1372.43 190.152 1364.67 208.239C1356.9 226.326 1346.15 242.283 1332.42 256.108C1318.69 269.84 1302.74 280.588 1284.55 288.353C1266.37 296.118 1246.91 300.001 1226.17 300.001ZM1226.17 267.046C1242.37 267.046 1257.57 264.016 1271.77 257.955C1285.97 251.894 1298.43 243.514 1309.13 232.813C1319.83 222.112 1328.21 209.707 1334.27 195.597C1340.33 181.393 1343.31 166.241 1343.22 150.143C1343.12 133.949 1340.05 118.751 1333.99 104.546C1327.93 90.3414 1319.54 77.8888 1308.84 67.188C1298.14 56.4873 1285.74 48.1066 1271.63 42.046C1257.52 35.9854 1242.37 32.9551 1226.17 32.9551C1210.07 32.9551 1194.97 35.9854 1180.86 42.046C1166.75 48.1066 1154.35 56.5346 1143.64 67.3301C1132.94 78.0308 1124.52 90.4835 1118.36 104.688C1112.3 118.798 1109.22 133.949 1109.13 150.143C1109.03 166.146 1112.02 181.251 1118.08 195.455C1124.14 209.565 1132.52 221.97 1143.22 232.671C1154.01 243.372 1166.47 251.8 1180.58 257.955C1194.78 264.016 1209.98 267.046 1226.17 267.046Z" fill="black"/>
</svg>
